<svg width="154" height="36" viewBox="0 0 154 36" fill="none" xmlns="http://www.w3.org/2000/svg">
<path d="M21.7344 19.2349H17.2256V27H14.6812V7.80469H21.0356C23.1978 7.80469 24.8589 8.29687 26.019 9.28125C27.188 10.2656 27.7725 11.6982 27.7725 13.5791C27.7725 14.7744 27.4473 15.8159 26.7969 16.7036C26.1553 17.5913 25.2588 18.2549 24.1074 18.6943L28.6162 26.8418V27H25.9004L21.7344 19.2349ZM17.2256 17.165H21.1147C22.3716 17.165 23.3691 16.8398 24.1074 16.1895C24.8545 15.5391 25.228 14.6689 25.228 13.5791C25.228 12.3926 24.8721 11.4829 24.1602 10.8501C23.457 10.2173 22.4375 9.89648 21.1016 9.8877H17.2256V17.165ZM36.8691 27.2637C34.9355 27.2637 33.3623 26.6309 32.1494 25.3652C30.9365 24.0908 30.3301 22.3901 30.3301 20.2632V19.8149C30.3301 18.3999 30.5981 17.1387 31.1343 16.0312C31.6792 14.915 32.4351 14.0449 33.4019 13.4209C34.3774 12.7881 35.4321 12.4717 36.5659 12.4717C38.4204 12.4717 39.8618 13.0825 40.8901 14.3042C41.9185 15.5259 42.4326 17.2749 42.4326 19.5513V20.5664H32.769C32.8042 21.9727 33.2129 23.1108 33.9951 23.981C34.7861 24.8423 35.7881 25.2729 37.001 25.2729C37.8623 25.2729 38.5918 25.0972 39.1895 24.7456C39.7871 24.394 40.3101 23.9282 40.7583 23.3481L42.248 24.5083C41.0527 26.3452 39.2598 27.2637 36.8691 27.2637ZM36.5659 14.4756C35.5815 14.4756 34.7554 14.8359 34.0874 15.5566C33.4194 16.2686 33.0063 17.2705 32.8481 18.5625H39.9937V18.3779C39.9233 17.1387 39.5894 16.1807 38.9917 15.5039C38.394 14.8184 37.5854 14.4756 36.5659 14.4756ZM50.9888 25.2729C51.8589 25.2729 52.6191 25.0093 53.2695 24.4819C53.9199 23.9546 54.2803 23.2954 54.3506 22.5044H56.6577C56.6138 23.3218 56.3325 24.0996 55.814 24.8379C55.2954 25.5762 54.6011 26.165 53.731 26.6045C52.8696 27.0439 51.9556 27.2637 50.9888 27.2637C49.0464 27.2637 47.4995 26.6177 46.3481 25.3257C45.2056 24.0249 44.6343 22.2495 44.6343 19.9995V19.5908C44.6343 18.2021 44.8892 16.9673 45.3989 15.8862C45.9087 14.8052 46.6382 13.9658 47.5874 13.3682C48.5454 12.7705 49.6748 12.4717 50.9756 12.4717C52.5752 12.4717 53.9023 12.9507 54.957 13.9087C56.0205 14.8667 56.5874 16.1104 56.6577 17.6396H54.3506C54.2803 16.7168 53.9287 15.9609 53.2959 15.3721C52.6719 14.7744 51.8984 14.4756 50.9756 14.4756C49.7363 14.4756 48.7739 14.9238 48.0884 15.8203C47.4116 16.708 47.0732 17.9956 47.0732 19.6831V20.1445C47.0732 21.7881 47.4116 23.0537 48.0884 23.9414C48.7651 24.8291 49.7319 25.2729 50.9888 25.2729ZM62.0498 27H59.6108V12.7354H62.0498V27ZM59.4131 8.95166C59.4131 8.55615 59.5317 8.22217 59.769 7.94971C60.0151 7.67725 60.3755 7.54102 60.8501 7.54102C61.3247 7.54102 61.6851 7.67725 61.9312 7.94971C62.1772 8.22217 62.3003 8.55615 62.3003 8.95166C62.3003 9.34717 62.1772 9.67676 61.9312 9.94043C61.6851 10.2041 61.3247 10.3359 60.8501 10.3359C60.3755 10.3359 60.0151 10.2041 59.769 9.94043C59.5317 9.67676 59.4131 9.34717 59.4131 8.95166ZM78.0151 20.0259C78.0151 22.1968 77.5186 23.9458 76.5254 25.2729C75.5322 26.6001 74.1875 27.2637 72.4912 27.2637C70.7598 27.2637 69.3975 26.7144 68.4043 25.6157V32.4844H65.9653V12.7354H68.1934L68.312 14.3174C69.3052 13.0869 70.6851 12.4717 72.4517 12.4717C74.1655 12.4717 75.519 13.1177 76.5122 14.4097C77.5142 15.7017 78.0151 17.499 78.0151 19.8018V20.0259ZM75.5762 19.749C75.5762 18.1406 75.2334 16.8706 74.5479 15.939C73.8623 15.0073 72.9219 14.5415 71.7266 14.5415C70.25 14.5415 69.1426 15.1963 68.4043 16.5059V23.3218C69.1338 24.6226 70.25 25.2729 71.7529 25.2729C72.9219 25.2729 73.8491 24.8115 74.5347 23.8887C75.229 22.957 75.5762 21.5771 75.5762 19.749ZM87.0459 27.2637C85.1123 27.2637 83.5391 26.6309 82.3262 25.3652C81.1133 24.0908 80.5068 22.3901 80.5068 20.2632V19.8149C80.5068 18.3999 80.7749 17.1387 81.311 16.0312C81.856 14.915 82.6118 14.0449 83.5786 13.4209C84.5542 12.7881 85.6089 12.4717 86.7427 12.4717C88.5972 12.4717 90.0386 13.0825 91.0669 14.3042C92.0952 15.5259 92.6094 17.2749 92.6094 19.5513V20.5664H82.9458C82.981 21.9727 83.3896 23.1108 84.1719 23.981C84.9629 24.8423 85.9648 25.2729 87.1777 25.2729C88.0391 25.2729 88.7686 25.0972 89.3662 24.7456C89.9639 24.394 90.4868 23.9282 90.9351 23.3481L92.4248 24.5083C91.2295 26.3452 89.4365 27.2637 87.0459 27.2637ZM86.7427 14.4756C85.7583 14.4756 84.9321 14.8359 84.2642 15.5566C83.5962 16.2686 83.1831 17.2705 83.0249 18.5625H90.1704V18.3779C90.1001 17.1387 89.7661 16.1807 89.1685 15.5039C88.5708 14.8184 87.7622 14.4756 86.7427 14.4756Z" fill="#FEFEFE"/>
<path d="M106.426 21.9902H98.3838L96.5776 27H93.9673L101.297 7.80469H103.512L110.855 27H108.258L106.426 21.9902ZM99.1484 19.9072H105.674L102.405 10.9292L99.1484 19.9072ZM125.107 20.0259C125.107 22.1968 124.61 23.9458 123.617 25.2729C122.624 26.6001 121.279 27.2637 119.583 27.2637C117.852 27.2637 116.489 26.7144 115.496 25.6157V32.4844H113.057V12.7354H115.285L115.404 14.3174C116.397 13.0869 117.777 12.4717 119.543 12.4717C121.257 12.4717 122.611 13.1177 123.604 14.4097C124.606 15.7017 125.107 17.499 125.107 19.8018V20.0259ZM122.668 19.749C122.668 18.1406 122.325 16.8706 121.64 15.939C120.954 15.0073 120.014 14.5415 118.818 14.5415C117.342 14.5415 116.234 15.1963 115.496 16.5059V23.3218C116.226 24.6226 117.342 25.2729 118.845 25.2729C120.014 25.2729 120.941 24.8115 121.626 23.8887C122.321 22.957 122.668 21.5771 122.668 19.749ZM140.268 20.0259C140.268 22.1968 139.771 23.9458 138.778 25.2729C137.785 26.6001 136.44 27.2637 134.744 27.2637C133.013 27.2637 131.65 26.7144 130.657 25.6157V32.4844H128.218V12.7354H130.446L130.565 14.3174C131.558 13.0869 132.938 12.4717 134.705 12.4717C136.418 12.4717 137.772 13.1177 138.765 14.4097C139.767 15.7017 140.268 17.499 140.268 19.8018V20.0259ZM137.829 19.749C137.829 18.1406 137.486 16.8706 136.801 15.939C136.115 15.0073 135.175 14.5415 133.979 14.5415C132.503 14.5415 131.396 15.1963 130.657 16.5059V23.3218C131.387 24.6226 132.503 25.2729 134.006 25.2729C135.175 25.2729 136.102 24.8115 136.788 23.8887C137.482 22.957 137.829 21.5771 137.829 19.749Z" fill="#FFCF7A"/>
</svg>
